# xmcd
#
# Track frame offsets:
#	150
#	25604
#	44702
#	64252
#	79043
#	99953
#	116737
#	145305
#	163273
#	176024
#	187675
#	202405
#
# Disc length: 2924 seconds
#
# Revision: 1
# Processed by: cddbd v1.5.2PL0 Copyright (c) Steve Scherf et al.
# Submitted via: audiograbber 1.83.01
#
DISCID=a90b6a0c
DTITLE=Dr.Slide - Outta Time
DYEAR=1998
DGENRE=Blues
TTITLE0=01 Going Back to Mississippi
TTITLE1=02 I got a beautiful woman
TTITLE2=03 Mister Murphy
TTITLE3=04 Why me
TTITLE4=05 Finished with you
TTITLE5=06 Thats who i am
TTITLE6=07 Nobody kisses me
TTITLE7=08 Stop Crying
TTITLE8=09 Gotta go
TTITLE9=10 Painter Blues
TTITLE10=11 Don't drive me crazy
TTITLE11=12 Down by the river
EXTD=
EXTT0=
EXTT1=
EXTT2=
EXTT3=
EXTT4=
EXTT5=
EXTT6=
EXTT7=
EXTT8=
EXTT9=
EXTT10=
EXTT11=
PLAYORDER=
